<?xml  version="1.0" encoding="UTF-8"?><svg fill="#e4ded7" id="Capa_2" xmlns="http://www.w3.org/2000/svg" width="658.3891" height="658.526" viewBox="0 0 658.3891 658.526"><defs><style>.cls-1{stroke-width:0px;}</style></defs><g id="Capa_1-2"><path class="cls-1" 
d="m163.7565,494.7805c-43.1287-.2834-83.1646.8446-125.2346-.9238-22.6629-1.2627-37.1307-13.8318-37.7048-36.2907-1.0912-42.6922-.3161-85.4321-.3161-129.6844,44.0118.1776,84.9726-.3432,128.0311.1349,23.2886.6987,38.1438,15.6209,38.3204,38.8254.2776,36.4914.5163,72.9942-.1496,109.4754-.2202,12.0597,3.3475,15.8655,15.6484,15.6755,47.6733-.7364,95.363-.4113,143.0467-.4651,215.8795-4.7227,223.8111-313.7283,4.3356-324.3751-92.9208-1.1723-185.8685-.3427-278.8052-.4226C12.8022,166.6971.1513,154.2095.0511,116.3378-.0492,78.4599.0291,40.5814.0291.0158c115.2679.3085,229.8225-.7433,344.9764,1.1865,280.1375,7.7361,418.1822,359.256,220.1091,557.1258-105.674,111.2314-219.4843,101.1437-360.5251,98.9832-26.8427-.3828-40.067-13.9407-40.4761-40.9522-.567-37.444.1237-74.9068.2398-112.3617.0074-2.3725-.2968-4.746-.5966-9.217Z" /></g></svg>